<svg width="32" height="32" fill="none" xmlns="http://www.w3.org/2000/svg"><path fill="#EE3643" d="M0 0h32v32H0z"/><path fill-rule="evenodd" clip-rule="evenodd" d="M6 5.996C5 6 5 7 5 7v5c0 .963 1 .997 1 .997h2.815c.62 0 .513.437.513.437s-.79 4.266-.876 4.987c-.085.723-.598 1.182-.598 1.182s-1.299.394-1.576.547C6 20.303 6 21 6 21h11v-.37c0-.48-2.564-1.027-3.397-1.115-.833-.087-.662-.656-.662-.656L13.282 16h.962l.354-2h-.962l.106-1H16.5c1.86-.197 3.5-1.177 3.5-1.177V7.5c-1.475-1.072-4.12-1.504-4.12-1.504H6ZM24.621 8.7h4.037c.185 0 .334.292.334.742s-.15.858-.334.858h-4.037c-.199.75-.663 1.7-1.205 1.7H21V7h2.416c.542 0 1.006.95 1.205 1.7ZM6.598 26C6 26 6 25.328 6 25.328V22h11v3.35c0 .59-.641.65-.641.65h-9.76ZM16 7.508v-.016c0-.27-.14-.492-.313-.492H6.313C6.14 7 6 7.222 6 7.492v.016c0 .27.14.492.313.492h9.374c.172 0 .313-.222.313-.492Z" fill="#fff"/></svg>