<svg width="52" height="52" viewBox="0 0 52 52" fill="none" xmlns="http://www.w3.org/2000/svg">
<circle r="26" cx="26" cy="26" fill="#EE3643"/>
<path fill-rule="evenodd" clip-rule="evenodd" d="M12.9647 12.675C12.0996 12.675 12.025 13.5883 12.025 13.5883V20.5025C12.025 21.8165 13.3222 21.775 13.3222 21.775H17.3467C18.2114 21.775 18.0621 22.443 18.0621 22.443C18.0621 22.443 16.9589 28.2656 16.84 29.2506C16.7207 30.2365 16.0054 30.8635 16.0054 30.8635C16.0054 30.8635 15.0514 31.401 14.664 31.61C14.2766 31.819 14.2766 32.825 14.2766 32.825H28.275V32.2666C28.275 31.61 25.1868 30.8635 24.0246 30.744C22.8619 30.625 23.1005 29.8481 23.1005 29.8481L23.5773 26.355H24.9187L25.4254 22.8315H24.084L24.2319 21.775H28.0787C30.6725 21.5061 32.5 19.7265 32.5 19.7265V14.3515C30.4433 12.8885 27.214 12.675 27.214 12.675H12.9647ZM38.851 15.925H44.8778C45.1347 15.925 45.5 16.468 45.5 17.0625C45.5 17.6571 45.1347 18.2 44.8778 18.2H38.851C38.5735 19.1911 37.9251 19.825 37.17 19.825H33.8V14.3H37.17C37.9256 14.3 38.5735 14.934 38.851 15.925ZM15.1452 39.9751C14.3 39.9751 14.3 39.0571 14.3 39.0571V34.1311H28.275V39.0871C28.275 39.8927 27.3697 39.9751 27.3697 39.9751H15.1452ZM27.95 15.12V15.1051C27.95 14.8411 27.7487 14.625 27.5027 14.625H14.0973C13.8513 14.625 13.65 14.8411 13.65 15.1051V15.12C13.65 15.384 13.8513 15.6 14.0973 15.6H27.5027C27.7487 15.6 27.95 15.384 27.95 15.12Z" fill="white"/>
</svg>
