<svg width="25" height="14" viewBox="0 0 25 14" fill="#fff" xmlns="http://www.w3.org/2000/svg">
<path d="M15.5123 10.7454C16.4312 10.457 17.6078 12.6498 18.8603 13.489C19.8004 14.1247 20.5203 13.9875 20.5203 13.9875L23.8587 13.9408C23.8587 13.9408 25.6033 13.8363 24.7786 12.4902C24.7103 12.3781 24.2951 11.4922 22.2938 9.6691C20.2012 7.76193 20.4848 8.07093 23.0041 4.77376C24.5392 2.76391 25.1534 1.53635 24.9612 1.01358C24.7766 0.510416 23.6491 0.641108 23.6491 0.641108L19.8878 0.666312C19.5216 0.667246 19.2111 0.7774 19.0698 1.14707C19.0669 1.1508 18.4729 2.7023 17.6808 4.02135C16.0073 6.81162 15.3393 6.96005 15.0625 6.78548C14.4271 6.38127 14.5876 5.16397 14.5876 4.29861C14.5876 1.59422 15.0029 0.466541 13.7744 0.175285C13.364 0.0782001 13.0641 0.0147213 12.0173 0.00538621C10.6792 -0.0142175 9.54307 0.00538622 8.89904 0.312512C8.47129 0.520685 8.14351 0.977172 8.34249 1.00331C8.59241 1.03598 9.15281 1.15267 9.45271 1.55035C9.83816 2.06565 9.82663 3.2204 9.82663 3.2204C9.82663 3.2204 10.0468 6.40461 9.30756 6.79948C8.80003 7.0702 8.10603 6.51756 6.61324 3.98401C5.85098 2.6883 5.2752 1.25629 5.2752 1.25629C5.2752 1.25629 5.1637 0.990241 4.96184 0.844613C4.72153 0.671913 4.3851 0.616836 4.3851 0.616836L0.815094 0.639241C0.815094 0.639241 0.278728 0.654177 0.0816755 0.883821C-0.0932685 1.08733 0.067257 1.50741 0.067257 1.50741C0.067257 1.50741 2.86348 7.9309 6.02977 11.1665C8.93268 14.1369 12.2316 13.9399 12.2316 13.9399H13.7263C13.7263 13.9399 14.1772 13.8895 14.4079 13.6487C14.6232 13.4246 14.6136 13.0036 14.6136 13.0036C14.6136 13.0036 14.5838 11.0348 15.5123 10.7454Z"/>
</svg>
