<svg width="14" height="12" viewBox="0 0 14 12" xmlns="http://www.w3.org/2000/svg">
<path d="M2.00007 7.99999V12H6.00686V7.99999H8.01025V12H12.017V7.99999L7.00856 3.51599L2.00007 7.99999Z" fill="#C1C6CE"/>
<path d="M13.8511 6.365L12.017 4.751V0H10.0136V2.987L7.34112 0.635C7.32108 0.618 7.29805 0.612 7.27701 0.598C7.25193 0.579705 7.22509 0.56396 7.19687 0.551C7.16593 0.540195 7.13408 0.532163 7.10171 0.527C7.07066 0.521 7.04061 0.515 7.00856 0.515C6.9775 0.515 6.94745 0.521 6.9164 0.527C6.88388 0.531919 6.85197 0.5403 6.82124 0.552C6.79319 0.563 6.76815 0.581 6.7411 0.598C6.72007 0.612 6.69603 0.618 6.67699 0.635L0.167964 6.365C0.0129661 6.50291 -0.0409606 6.72187 0.0323063 6.9158C0.105573 7.10974 0.290904 7.23862 0.498524 7.24C0.620663 7.24035 0.738667 7.19586 0.830086 7.115L7.00856 1.677L13.188 7.115C13.3972 7.27913 13.6983 7.25178 13.8744 7.05265C14.0505 6.85352 14.0403 6.55183 13.8511 6.365Z"/>
</svg>
