<svg xmlns="http://www.w3.org/2000/svg"><style>:root svg:not(:target){display:none}</style><svg viewBox="0 0 14 16" id="bookmark"><path d="M14 15c0 .55-.368.741-.818.426l-5.363-3.765c-.45-.315-1.187-.315-1.637 0L.818 15.426C.368 15.741 0 15.55 0 15V1c0-.55.45-1 1-1h12c.55 0 1 .45 1 1v14Z"/></svg><svg viewBox="0 0 15 15" id="cart"><path d="M4.5 15a1.5 1.5 0 1 0 0-3 1.5 1.5 0 0 0 0 3ZM12.5 15a1.5 1.5 0 1 0 0-3 1.5 1.5 0 0 0 0 3ZM15 2H4.07l-.422-2H0v2h2.031l1.985 9H15V9H9.441L15 6.951V2Z"/></svg><svg viewBox="0 0 14 12" id="home"><path d="M2 8v4h4.007V8H8.01v4h4.007V8L7.009 3.516 2 8Z" fill="#C1C6CE"/><path d="m13.851 6.365-1.834-1.614V0h-2.003v2.987L7.34.635c-.02-.017-.043-.023-.064-.037a.466.466 0 0 0-.08-.047.553.553 0 0 0-.095-.024C7.07.521 7.04.515 7.009.515s-.062.006-.093.012a.461.461 0 0 0-.095.025c-.028.011-.053.029-.08.046-.02.014-.045.02-.064.037L.168 6.365a.5.5 0 0 0 .662.75L7.01 1.677l6.179 5.438a.502.502 0 0 0 .663-.75Z"/></svg><svg viewBox="0 0 19 19" fill="none" id="phone"><path d="M15.572 18.985h-.941c-4.129-.488-7.157-2.408-9.359-4.864C3.062 11.66 1.318 8.492.978 4.228V3.084c.078-.774.459-1.304.898-1.757C2.425.766 3.25.044 4.002.019c.554-.018 1.5.38 1.879.899.329.446.504 1.339.656 2.003.154.671.505 1.643.408 2.289-.148 1.007-1.487 1.434-1.879 2.166 1.307 3.135 3.443 5.439 6.293 7.031.715-.392 1.346-1.572 2.332-1.595.359-.009.818.178 1.184.286.402.121.75.275 1.104.408.596.224 1.648.521 2.004 1.021.365.513.57 1.356.49 1.879-.164 1.041-1.879 2.197-2.901 2.579Z" fill="#B7BFC8"/></svg><svg viewBox="0 0 17 17" id="search"><path fill-rule="evenodd" clip-rule="evenodd" d="M13.458 12.044 17 15.586 15.586 17l-3.542-3.542A7.465 7.465 0 0 1 7.5 15 7.5 7.5 0 1 1 15 7.5c0 1.643-.542 3.24-1.542 4.544ZM7.5 2A5.506 5.506 0 0 0 2 7.5 5.506 5.506 0 0 0 7.5 13c3.032 0 5.5-2.468 5.5-5.5C13 4.467 10.532 2 7.5 2Z"/></svg><svg viewBox="0 0 20 17" id="sign-in"><path d="M14.167 8.5 5.714 0v6H0v5h5.714v6l8.453-8.5Z"/><path d="M16.177 15.01H11.39V17h4.787c2.074 0 2.861-1.81 2.885-3.026V3.028C19.038 1.811 18.252 0 16.177 0H11.39v1.99h4.787c.8 0 .945.681.962 1.057v10.904c-.016.376-.163 1.059-.962 1.059Z"/></svg><svg viewBox="0 0 20 17" id="sign-out"><path d="M20 8.5 11.125 0v6h-6v5h6v6L20 8.5Z"/><path d="M2.106 13.952V3.048c.018-.376.171-1.057 1.01-1.057h5.027V0H3.116C.938 0 .112 1.81.087 3.027v10.946C.112 15.189.938 17 3.116 17h5.027v-1.99H3.116c-.839 0-.992-.683-1.01-1.058Z"/></svg><svg viewBox="0 0 39 30" id="tick"><path d="M34.641 1.066a1.003 1.003 0 0 0-1.414 0L14.788 19.504a1.003 1.003 0 0 1-1.414 0l-8.14-8.139a1.003 1.003 0 0 0-1.414 0L.285 14.9a1.003 1.003 0 0 0 0 1.414l13.089 13.09a1.003 1.003 0 0 0 1.414 0l3.536-3.536 1.414-1.414L38.176 6.016a1.003 1.003 0 0 0 0-1.414l-3.535-3.536Z" fill="#fff"/></svg><svg viewBox="0 0 20 18" id="user"><path d="M17.881 14.166c-2.144-.735-4.256-1.666-5.207-2.39-.657-.501-.77-1.618-.517-2.415 1.118-.903 1.864-2.477 1.864-4.278C14.021 2.276 12.221 0 10 0S5.979 2.276 5.979 5.083c0 1.801.746 3.374 1.863 4.277.253.798.141 1.915-.517 2.416-.95.724-3.063 1.654-5.207 2.39C-.026 14.902 0 18 0 18h20s.025-3.099-2.119-3.834Z"/></svg><svg viewBox="0 0 21 21" id="x-rounded"><path d="m13.273 10.5 7.422-7.422a1.003 1.003 0 0 0 0-1.414l-1.36-1.36a1.003 1.003 0 0 0-1.413 0L10.5 7.728 3.078.305a1.003 1.003 0 0 0-1.414 0L.304 1.664a1.003 1.003 0 0 0 0 1.414L7.728 10.5.306 17.922a1.003 1.003 0 0 0 0 1.414l1.359 1.359a1.003 1.003 0 0 0 1.414 0l7.422-7.422 7.422 7.422a1.003 1.003 0 0 0 1.414 0l1.359-1.36a1.003 1.003 0 0 0 0-1.413L13.273 10.5Z" fill="#fff"/></svg><svg viewBox="0 0 23 23" id="checkers_checkbox-off"><path fill-rule="evenodd" clip-rule="evenodd" d="M3 0h17c1.65 0 3 1.35 3 3v17c0 1.65-1.35 3-3 3H3c-1.65 0-3-1.35-3-3V3c0-1.65 1.35-3 3-3Zm18 3c0-.542-.458-1-1-1H3c-.542 0-1 .458-1 1v17c0 .542.458 1 1 1h17c.542 0 1-.458 1-1V3Z"/></svg><svg viewBox="0 0 27 23" id="checkers_checkbox-on"><path d="m7.285 7.486-2.829 2.829 7.783 7.783L26.171 4.166l-2.828-2.83L12.239 12.44 7.285 7.486Z"/><path d="M21 20c0 .542-.458 1-1 1H3c-.542 0-1-.458-1-1V3c0-.542.458-1 1-1h16.908L21.493.415A2.96 2.96 0 0 0 20 0H3C1.35 0 0 1.35 0 3v17c0 1.65 1.35 3 3 3h17c1.65 0 3-1.35 3-3v-9.829l-2 2V20Z"/></svg><svg viewBox="0 0 22 40" id="controls_right-arrow-without-tail"><path d="M2.076 39.059.078 37.01l17.015-17.447L.022 2.062l2-2.047 19.067 19.549L2.076 39.059Z"/></svg><svg viewBox="0 0 8 12" id="controls_rounded-right-arrow-without-tail"><path d="M7.237 5.693 1.729.971a.568.568 0 0 0-.716 0 .392.392 0 0 0 0 .614L6.163 6l-5.151 4.414a.391.391 0 0 0 .013.603.57.57 0 0 0 .703.012l5.509-4.722A.404.404 0 0 0 7.387 6a.404.404 0 0 0-.15-.307Z" fill="#C1C6CE"/></svg><svg viewBox="0 0 52 52" fill="none" id="map_marker"><circle r="26" cx="26" cy="26" fill="#EE3643"/><path fill-rule="evenodd" clip-rule="evenodd" d="M12.965 12.675c-.865 0-.94.913-.94.913v6.915c0 1.314 1.297 1.272 1.297 1.272h4.025c.864 0 .715.668.715.668s-1.103 5.823-1.222 6.808c-.12.985-.835 1.612-.835 1.612s-.954.538-1.341.747c-.387.209-.387 1.215-.387 1.215h13.998v-.558c0-.657-3.088-1.404-4.25-1.523-1.163-.119-.924-.896-.924-.896l.476-3.493h1.342l.506-3.524h-1.341l.148-1.056h3.847c2.593-.269 4.421-2.048 4.421-2.048V14.35c-2.057-1.463-5.286-1.676-5.286-1.676h-14.25Zm25.886 3.25h6.027c.257 0 .622.543.622 1.137 0 .595-.365 1.138-.622 1.138H38.85c-.277.991-.926 1.625-1.681 1.625H33.8V14.3h3.37c.756 0 1.404.634 1.681 1.625Zm-23.706 24.05c-.845 0-.845-.918-.845-.918v-4.926h13.975v4.956c0 .806-.905.888-.905.888H15.145ZM27.95 15.12v-.015c0-.264-.201-.48-.447-.48H14.097c-.246 0-.447.216-.447.48v.015c0 .264.201.48.447.48h13.406c.246 0 .447-.216.447-.48Z" fill="#fff"/></svg><svg viewBox="0 0 12 22" fill="#fff" id="socials_facebook"><path d="M12 4V0H8a4 4 0 0 0-4 4v4H0v4h4v10h4V12h4V8H8V4h4Z"/></svg><svg viewBox="0 0 21 21" fill="#fff" id="socials_instagram"><path fill-rule="evenodd" clip-rule="evenodd" d="M3 0h15c1.65 0 3 1.35 3 3v15c0 1.65-1.35 3-3 3H3c-1.65 0-3-1.35-3-3V3c0-1.65 1.35-3 3-3Zm11 10.5C14 8.57 12.43 7 10.5 7S7 8.57 7 10.5 8.57 14 10.5 14s3.5-1.57 3.5-3.5ZM3 18V9h1.181c-.118.491-.18.995-.181 1.5a6.5 6.5 0 1 0 13 0 6.451 6.451 0 0 0-.181-1.5H18v9H3ZM14 7h4V3h-4v4Z"/></svg><svg viewBox="0 0 25 14" fill="#fff" id="socials_vk"><path d="M15.512 10.745c.92-.288 2.096 1.905 3.348 2.744.94.636 1.66.498 1.66.498l3.339-.046s1.744-.105.92-1.45c-.069-.113-.484-.999-2.485-2.822-2.093-1.907-1.81-1.598.71-4.895 1.535-2.01 2.15-3.238 1.957-3.76C24.777.51 23.65.64 23.65.64l-3.761.025c-.366.001-.677.111-.818.481-.003.004-.597 1.555-1.39 2.874-1.673 2.79-2.34 2.939-2.617 2.764-.636-.404-.475-1.621-.475-2.486 0-2.705.415-3.832-.814-4.124-.41-.097-.71-.16-1.757-.17-1.338-.02-2.474 0-3.118.308-.428.208-.755.664-.557.69.25.033.81.15 1.11.547.386.516.375 1.67.375 1.67s.22 3.185-.52 3.58c-.507.27-1.201-.282-2.694-2.816-.762-1.296-1.338-2.728-1.338-2.728S5.164.99 4.962.845c-.24-.173-.577-.228-.577-.228L.815.639S.28.654.082.884c-.175.203-.015.623-.015.623s2.796 6.424 5.963 9.66c2.903 2.97 6.202 2.773 6.202 2.773h1.494s.451-.05.682-.291c.215-.224.206-.645.206-.645s-.03-1.97.898-2.259Z"/></svg></svg>